<svg width="32" height="32" viewBox="0 0 32 32" fill="none" xmlns="http://www.w3.org/2000/svg">
<path fill-rule="evenodd" clip-rule="evenodd" d="M15.5762 21.9581H16.624C16.624 21.9581 16.9405 21.9234 17.1021 21.7492C17.2508 21.5893 17.2461 21.289 17.2461 21.289C17.2461 21.289 17.2256 19.8831 17.8781 19.676C18.5213 19.4721 19.3473 21.0348 20.2228 21.6357C20.8848 22.0904 21.3879 21.9907 21.3879 21.9907L23.7288 21.9581C23.7288 21.9581 24.9534 21.8827 24.3727 20.9199C24.3251 20.8411 24.0346 20.2076 22.6322 18.906C21.1644 17.5436 21.361 17.7639 23.1291 15.4074C24.2059 13.9722 24.6364 13.096 24.5019 12.7207C24.3737 12.3633 23.5817 12.4577 23.5817 12.4577L20.946 12.4742C20.946 12.4742 20.7506 12.4475 20.6057 12.5341C20.4641 12.6191 20.373 12.8171 20.373 12.8171C20.373 12.8171 19.9558 13.9277 19.3994 14.8722C18.2258 16.8651 17.7565 16.9703 17.5647 16.8466C17.1185 16.5582 17.2299 15.6879 17.2299 15.0697C17.2299 13.1383 17.5228 12.333 16.6595 12.1246C16.373 12.0553 16.1621 12.0096 15.4294 12.0023C14.489 11.9925 13.693 12.0051 13.2422 12.226C12.9424 12.3728 12.7111 12.7 12.852 12.7188C13.0262 12.7421 13.4207 12.8252 13.6299 13.11C13.9 13.4774 13.8905 14.3027 13.8905 14.3027C13.8905 14.3027 14.0456 16.5763 13.528 16.8587C13.1728 17.0524 12.6854 16.6569 11.6391 14.8488C11.1029 13.9227 10.6981 12.8989 10.6981 12.8989C10.6981 12.8989 10.6201 12.7076 10.4809 12.6053C10.3119 12.4813 10.0758 12.4418 10.0758 12.4418L7.57123 12.4582C7.57123 12.4582 7.19524 12.4687 7.05722 12.6322C6.93443 12.7776 7.04747 13.0784 7.04747 13.0784C7.04747 13.0784 9.00832 17.6659 11.2286 19.9778C13.2644 22.0973 15.5762 21.9581 15.5762 21.9581Z" fill="#212121"/>
<mask id="mask0" mask-type="alpha" maskUnits="userSpaceOnUse" x="7" y="12" width="18" height="10">
<path fill-rule="evenodd" clip-rule="evenodd" d="M15.5762 21.9581H16.624C16.624 21.9581 16.9405 21.9234 17.1021 21.7492C17.2508 21.5893 17.2461 21.289 17.2461 21.289C17.2461 21.289 17.2256 19.8831 17.8781 19.676C18.5213 19.4721 19.3473 21.0348 20.2228 21.6357C20.8848 22.0904 21.3879 21.9907 21.3879 21.9907L23.7288 21.9581C23.7288 21.9581 24.9534 21.8827 24.3727 20.9199C24.3251 20.8411 24.0346 20.2076 22.6322 18.906C21.1644 17.5436 21.361 17.7639 23.1291 15.4074C24.2059 13.9722 24.6364 13.096 24.5019 12.7207C24.3737 12.3633 23.5817 12.4577 23.5817 12.4577L20.946 12.4742C20.946 12.4742 20.7506 12.4475 20.6057 12.5341C20.4641 12.6191 20.373 12.8171 20.373 12.8171C20.373 12.8171 19.9558 13.9277 19.3994 14.8722C18.2258 16.8651 17.7565 16.9703 17.5647 16.8466C17.1185 16.5582 17.2299 15.6879 17.2299 15.0697C17.2299 13.1383 17.5228 12.333 16.6595 12.1246C16.373 12.0553 16.1621 12.0096 15.4294 12.0023C14.489 11.9925 13.693 12.0051 13.2422 12.226C12.9424 12.3728 12.7111 12.7 12.852 12.7188C13.0262 12.7421 13.4207 12.8252 13.6299 13.11C13.9 13.4774 13.8905 14.3027 13.8905 14.3027C13.8905 14.3027 14.0456 16.5763 13.528 16.8587C13.1728 17.0524 12.6854 16.6569 11.6391 14.8488C11.1029 13.9227 10.6981 12.8989 10.6981 12.8989C10.6981 12.8989 10.6201 12.7076 10.4809 12.6053C10.3119 12.4813 10.0758 12.4418 10.0758 12.4418L7.57123 12.4582C7.57123 12.4582 7.19524 12.4687 7.05722 12.6322C6.93443 12.7776 7.04747 13.0784 7.04747 13.0784C7.04747 13.0784 9.00832 17.6659 11.2286 19.9778C13.2644 22.0973 15.5762 21.9581 15.5762 21.9581Z" fill="white"/>
</mask>
<g mask="url(#mask0)">
<rect width="32" height="32" fill="white"/>
<rect width="32" height="32" fill="white"/>
</g>
</svg>
